<mxfile host="app.diagrams.net" modified="2021-11-09T06:44:33.229Z" agent="5.0 (Windows NT 10.0; Win64; x64) AppleWebKit/537.36 (KHTML, like Gecko) Chrome/95.0.4638.69 Safari/537.36 Edg/95.0.1020.44" etag="RBveLQFNyrx2Tnxlji3U" version="15.5.4" type="github">
  <diagram id="WU_pDkjJDiPU-057FEEy" name="第 1 页">
    <mxGraphModel dx="1221" dy="681" grid="1" gridSize="10" guides="1" tooltips="1" connect="1" arrows="1" fold="1" page="1" pageScale="1" pageWidth="827" pageHeight="1169" math="0" shadow="0">
      <root>
        <mxCell id="0" />
        <mxCell id="1" parent="0" />
        <mxCell id="v3o1dxLGNzjvyIgLhw9l-2" value="" style="whiteSpace=wrap;html=1;aspect=fixed;" parent="1" vertex="1">
          <mxGeometry x="169" y="230" width="490" height="490" as="geometry" />
        </mxCell>
        <mxCell id="4DSc22YWnFZ-7fUATBi_-12" style="edgeStyle=orthogonalEdgeStyle;rounded=0;orthogonalLoop=1;jettySize=auto;html=1;exitX=0.5;exitY=1;exitDx=0;exitDy=0;entryX=0;entryY=0.5;entryDx=0;entryDy=0;" edge="1" parent="1" source="v3o1dxLGNzjvyIgLhw9l-3" target="4DSc22YWnFZ-7fUATBi_-3">
          <mxGeometry relative="1" as="geometry" />
        </mxCell>
        <mxCell id="v3o1dxLGNzjvyIgLhw9l-3" value="VO" style="rounded=1;whiteSpace=wrap;html=1;" parent="1" vertex="1">
          <mxGeometry x="250" y="290" width="120" height="60" as="geometry" />
        </mxCell>
        <mxCell id="4DSc22YWnFZ-7fUATBi_-13" style="edgeStyle=orthogonalEdgeStyle;rounded=0;orthogonalLoop=1;jettySize=auto;html=1;exitX=0.5;exitY=1;exitDx=0;exitDy=0;entryX=1;entryY=0.5;entryDx=0;entryDy=0;" edge="1" parent="1" source="v3o1dxLGNzjvyIgLhw9l-4" target="4DSc22YWnFZ-7fUATBi_-3">
          <mxGeometry relative="1" as="geometry" />
        </mxCell>
        <mxCell id="v3o1dxLGNzjvyIgLhw9l-4" value="DTO" style="rounded=1;whiteSpace=wrap;html=1;" parent="1" vertex="1">
          <mxGeometry x="450" y="290" width="120" height="60" as="geometry" />
        </mxCell>
        <mxCell id="4DSc22YWnFZ-7fUATBi_-8" style="edgeStyle=orthogonalEdgeStyle;rounded=0;orthogonalLoop=1;jettySize=auto;html=1;exitX=0.5;exitY=1;exitDx=0;exitDy=0;" edge="1" parent="1" source="4DSc22YWnFZ-7fUATBi_-1" target="v3o1dxLGNzjvyIgLhw9l-3">
          <mxGeometry relative="1" as="geometry" />
        </mxCell>
        <mxCell id="4DSc22YWnFZ-7fUATBi_-1" value="web" style="rounded=0;whiteSpace=wrap;html=1;" vertex="1" parent="1">
          <mxGeometry x="250" y="140" width="120" height="60" as="geometry" />
        </mxCell>
        <mxCell id="4DSc22YWnFZ-7fUATBi_-11" style="edgeStyle=orthogonalEdgeStyle;rounded=0;orthogonalLoop=1;jettySize=auto;html=1;exitX=0.5;exitY=1;exitDx=0;exitDy=0;" edge="1" parent="1" source="4DSc22YWnFZ-7fUATBi_-2" target="v3o1dxLGNzjvyIgLhw9l-4">
          <mxGeometry relative="1" as="geometry" />
        </mxCell>
        <mxCell id="4DSc22YWnFZ-7fUATBi_-2" value="api" style="rounded=0;whiteSpace=wrap;html=1;" vertex="1" parent="1">
          <mxGeometry x="450" y="140" width="120" height="60" as="geometry" />
        </mxCell>
        <mxCell id="4DSc22YWnFZ-7fUATBi_-14" style="edgeStyle=orthogonalEdgeStyle;rounded=0;orthogonalLoop=1;jettySize=auto;html=1;exitX=0.5;exitY=1;exitDx=0;exitDy=0;" edge="1" parent="1" source="4DSc22YWnFZ-7fUATBi_-3" target="4DSc22YWnFZ-7fUATBi_-4">
          <mxGeometry relative="1" as="geometry" />
        </mxCell>
        <mxCell id="4DSc22YWnFZ-7fUATBi_-3" value="BO" style="rounded=1;whiteSpace=wrap;html=1;" vertex="1" parent="1">
          <mxGeometry x="354" y="390" width="120" height="60" as="geometry" />
        </mxCell>
        <mxCell id="4DSc22YWnFZ-7fUATBi_-15" style="edgeStyle=orthogonalEdgeStyle;rounded=0;orthogonalLoop=1;jettySize=auto;html=1;exitX=0.5;exitY=1;exitDx=0;exitDy=0;entryX=0.5;entryY=0;entryDx=0;entryDy=0;" edge="1" parent="1" source="4DSc22YWnFZ-7fUATBi_-4" target="4DSc22YWnFZ-7fUATBi_-6">
          <mxGeometry relative="1" as="geometry" />
        </mxCell>
        <mxCell id="4DSc22YWnFZ-7fUATBi_-4" value="PO、DO" style="rounded=1;whiteSpace=wrap;html=1;" vertex="1" parent="1">
          <mxGeometry x="354" y="500" width="120" height="60" as="geometry" />
        </mxCell>
        <mxCell id="4DSc22YWnFZ-7fUATBi_-6" value="database" style="rounded=1;whiteSpace=wrap;html=1;" vertex="1" parent="1">
          <mxGeometry x="296" y="620" width="236" height="70" as="geometry" />
        </mxCell>
      </root>
    </mxGraphModel>
  </diagram>
</mxfile>
